<?xml version="1.0" encoding="UTF-8" standalone="no"?>
<svg
   xmlns:dc="http://purl.org/dc/elements/1.1/"
   xmlns:cc="http://creativecommons.org/ns#"
   xmlns:rdf="http://www.w3.org/1999/02/22-rdf-syntax-ns#"
   xmlns:svg="http://www.w3.org/2000/svg"
   xmlns="http://www.w3.org/2000/svg"
   xmlns:sodipodi="http://sodipodi.sourceforge.net/DTD/sodipodi-0.dtd"
   xmlns:inkscape="http://www.inkscape.org/namespaces/inkscape"
   inkscape:version="1.0 (4035a4fb49, 2020-05-01)"
   sodipodi:docname="Copa_América_2021.svg"
   viewBox="0 0 3449.5986 1185.75"
   height="1185.75"
   width="3449.5986"
   id="svg10"
   version="1.1">
  <metadata
     id="metadata16">
    <rdf:RDF>
      <cc:Work
         rdf:about="">
        <dc:format>image/svg+xml</dc:format>
        <dc:type
           rdf:resource="http://purl.org/dc/dcmitype/StillImage" />
        <dc:title></dc:title>
      </cc:Work>
    </rdf:RDF>
  </metadata>
  <defs
     id="defs14" />
  <sodipodi:namedview
     inkscape:current-layer="g18"
     inkscape:window-maximized="1"
     inkscape:window-y="-8"
     inkscape:window-x="-8"
     inkscape:cy="523.32039"
     inkscape:cx="1845.8529"
     inkscape:zoom="0.23671357"
     showgrid="false"
     id="namedview12"
     inkscape:window-height="705"
     inkscape:window-width="1366"
     inkscape:pageshadow="2"
     inkscape:pageopacity="0"
     guidetolerance="10"
     gridtolerance="10"
     objecttolerance="10"
     borderopacity="1"
     bordercolor="#666666"
     pagecolor="#ffffff" />
  <g
     transform="translate(-5.6456573)"
     id="g18"
     inkscape:label="Image"
     inkscape:groupmode="layer">
    <g
       transform="translate(4.2245127)"
       id="g22">
      <path
         id="path28"
         d="m 2275.6371,1185.7371 c -6.3305,-0.162 -13.7957,-0.8202 -16.5894,-1.4626 -2.7936,-0.6424 -9.2054,-2.2252 -14.2483,-3.5172 -5.0428,-1.2921 -14.4682,-7.014 -20.9452,-12.7153 -6.4771,-5.7013 -15.7381,-17.45 -20.58,-26.1082 -4.842,-8.6582 -10.6806,-23.7068 -12.9747,-33.4412 -3.2532,-13.804 -3.8659,-25.2442 -2.7839,-51.9847 0.7629,-18.8571 3.1783,-41.5219 5.3674,-50.3661 2.1892,-8.84416 7.9277,-24.62412 12.7524,-35.06654 4.8247,-10.44241 12.3307,-23.47918 16.68,-28.97059 5.3722,-6.78298 14.6773,-13.33881 29.0204,-20.44609 19.573,-9.69879 21.627,-10.21021 28.1656,-7.01257 3.8791,1.89707 9.1807,7.57884 11.7813,12.62618 3.6417,7.06779 4.1535,10.68915 2.227,15.75629 -1.6897,4.44409 -6.6633,8.36968 -15.3256,12.09608 -7.0533,3.03423 -16.2465,9.41468 -20.4295,14.17874 -4.1829,4.76407 -10.535,14.44363 -14.1159,21.51012 -3.5809,7.06652 -8.6451,21.19368 -11.2539,31.39388 -2.6087,10.2001 -4.9695,25.2333 -5.2461,33.4072 -0.2767,8.1739 0.3772,21.7188 1.453,30.0997 1.0758,8.381 4.1317,21.1493 6.7908,28.3741 2.9757,8.0847 8.6441,16.5774 14.741,22.0855 5.4484,4.9224 14.7132,10.2441 20.5885,11.8261 8.4145,2.2658 12.6236,2.14 19.8265,-0.5927 6.8616,-2.6032 9.8585,-5.6644 12.006,-12.2636 2.7747,-8.5264 3.3038,-8.8179 17.3572,-9.5625 8.4959,-0.4502 15.9832,0.4669 18.0904,2.2157 1.9774,1.6411 3.5953,6.3855 3.5953,10.543 0,4.1576 -1.8499,11.4576 -4.1109,16.2223 -2.261,4.7646 -8.6807,12.2824 -14.2661,16.7061 -5.5853,4.4236 -15.9845,9.5551 -23.1092,11.4032 -7.1248,1.8482 -18.1336,3.2277 -24.4641,3.0657 z m 418.1814,-68.3541 c -7.251,-0.042 -15.3186,-1.3177 -17.9281,-2.8339 -4.4947,-2.6114 -4.6466,-5.6357 -2.8823,-57.3962 1.3735,-40.2933 1.1111,-54.1752 -0.9991,-52.871 -1.5739,0.9727 -6.8533,8.0089 -11.7323,15.6359 -4.879,7.6271 -11.7974,14.98 -15.374,16.3398 -3.5766,1.3599 -10.5039,2.4725 -15.3935,2.4725 -4.8899,0 -10.9458,-1.0999 -13.4578,-2.4442 -2.5117,-1.3443 -7.1474,-9.3443 -10.3012,-17.7778 -3.154,-8.4334 -6.5521,-15.3335 -7.5512,-15.3335 -0.9994,0 -3.3438,15.1428 -5.21,33.6508 -1.8661,18.5079 -3.4806,41.6507 -3.5878,51.4285 -0.1574,14.4557 -1.1438,18.6051 -5.2741,22.2049 -3.7473,3.266 -8.7429,4.2651 -19.0476,3.8095 l -13.9683,-0.6175 0.4345,-39.3651 c 0.2388,-21.6508 2.2157,-62.9441 4.3929,-91.76282 2.1773,-28.81876 5.0504,-55.26935 6.3848,-58.77912 2.0947,-5.50941 4.5115,-6.62341 17.6876,-8.15266 8.3937,-0.9742 18.814,-0.99093 23.1563,-0.0371 6.4978,1.42718 8.9623,4.14715 13.9254,15.3695 3.3165,7.49948 9.0849,23.65046 12.8185,35.89107 6.3396,20.78408 7.0375,21.92429 10.5542,17.24437 2.0711,-2.75619 8.7037,-14.72554 14.7395,-26.59855 6.0356,-11.87302 14.5494,-26.48589 18.9196,-32.47307 4.3701,-5.98715 10.716,-12.14796 14.1019,-13.69069 5.3948,-2.45808 7.7399,-1.59703 18.9648,6.9632 7.0448,5.37244 12.8089,11.07439 12.8089,12.67096 0,1.59657 -1.6592,26.7903 -3.6869,55.98608 -2.0279,29.19573 -4.1828,69.26663 -4.789,89.04623 -0.606,19.7797 -1.8715,37.2083 -2.8122,38.7302 -0.9405,1.5219 -7.6427,2.7324 -14.8935,2.6899 z m 107.4514,-0.8544 c -20.2539,0.2604 -41.3201,-0.2806 -46.8137,-1.2022 -8.3601,-1.4025 -10.3182,-2.917 -12.0127,-9.2907 -1.1131,-4.1882 -2.2773,-36.7597 -2.5866,-72.3809 -0.3094,-35.62126 -0.2802,-76.13999 0.063,-90.0416 0.3448,-13.90162 1.8577,-26.75876 3.3622,-28.57143 1.9472,-2.34631 11.0235,-3.29577 31.5056,-3.29577 15.8237,0 34.4866,1.22588 41.4727,2.72419 8.461,1.8145 15.248,5.32759 20.3249,10.52043 4.1922,4.28795 9.5794,11.91918 11.9715,16.95835 2.5067,5.28038 4.3497,15.22524 4.3505,23.47304 0,10.23139 -1.6092,17.04056 -5.6483,23.88629 -4.4665,7.57032 -4.9541,10.01644 -2.3281,11.6819 1.8271,1.1586 4.7469,2.1241 6.4889,2.1455 1.742,0.02 7.8248,4.2466 13.5172,9.3894 5.6924,5.1428 12.5529,13.6687 15.2455,18.9465 2.9358,5.7549 4.8955,14.7696 4.8955,22.5216 0,7.1091 -1.871,16.5832 -4.1575,21.0535 -2.2867,4.4703 -7.4481,12.3159 -11.4702,17.4347 -4.0219,5.1188 -12.7226,12.5169 -19.3346,16.4403 -11.5581,6.8583 -13.4428,7.1518 -48.8473,7.6069 z m -2.5396,-33.5094 c 4.8889,-0.5822 12.0485,-1.0712 15.9103,-1.0865 4.3685,-0.018 10.4602,-3.1794 16.1232,-8.3692 7.1967,-6.5952 9.3757,-10.7702 10.4099,-19.9456 0.7327,-6.5008 0.031,-13.9902 -1.5954,-17.0293 -1.597,-2.9837 -6.333,-7.1985 -10.525,-9.3662 -5.4263,-2.8061 -13.2681,-3.728 -27.2261,-3.2009 l -19.6049,0.7404 -0.7162,28.3695 c -0.641,25.3949 -0.2412,28.5047 3.8096,29.658 2.4891,0.7086 8.5257,0.8121 13.4146,0.2299 z m -5.0329,-100.1621 c 5.7003,0 13.7023,-1.72612 17.7821,-3.8358 4.0797,-2.10969 8.5945,-6.03457 10.0327,-8.72193 1.4383,-2.68737 2.6149,-8.34962 2.6149,-12.58276 0,-5.12574 -1.7156,-8.61483 -5.136,-10.44541 -2.8249,-1.51182 -12.2535,-2.40917 -20.9524,-1.99413 l -15.8164,0.75464 -0.772,14.95373 c -0.4247,8.22453 -0.1753,16.51024 0.5551,18.41269 0.8201,2.13697 5.2887,3.45897 11.692,3.45897 z m 125.5408,134.5643 c -7.054,0.02 -14.1968,-1.3326 -15.873,-3.0087 -2.2611,-2.2612 -3.0476,-27.4389 -3.0476,-97.5701 0,-51.98735 0.6936,-96.3302 1.5416,-98.53968 1.0852,-2.82826 4.8777,-4.01724 12.8137,-4.01724 8.467,0 12.7677,1.49526 17.2807,6.00846 4.271,4.2708 6.5458,10.30824 7.8662,20.87659 1.0217,8.1775 1.2622,50.17742 0.5343,93.33317 -1.056,62.6277 -2.0261,78.9104 -4.8068,80.6718 -1.916,1.2137 -9.2551,2.2243 -16.3091,2.2457 z m -484.9524,-4.2704 c -30.7302,0.7862 -57.873,0.8508 -60.3175,0.1435 -2.4444,-0.7073 -4.592,-1.4879 -4.7725,-1.7347 -0.1805,-0.2469 -0.6987,-43.8243 -1.1517,-96.8388 -0.562,-65.77259 0.038,-97.42813 1.8886,-99.658 1.6079,-1.93745 5.4372,-2.68919 9.4056,-1.84648 3.6814,0.78179 11.4972,3.13054 17.3683,5.21946 5.8711,2.08894 11.2572,5.72396 11.9692,8.07784 0.7119,2.35388 0.8388,37.24922 0.282,77.54518 l -1.0123,73.2653 60.1542,-0.8844 60.1544,-0.8844 2.4133,9.7723 c 1.8437,7.4653 1.5226,11.3625 -1.3599,16.508 -3.3507,5.9813 -5.7539,6.912 -21.461,8.3106 -9.7282,0.8663 -42.8305,2.2184 -73.5607,3.0046 z m 539.5848,1.7696 c -12.4716,0 -17.6686,-0.9352 -17.6409,-3.1746 0.025,-1.746 2.366,-12.3175 5.2104,-23.4921 2.8442,-11.1746 8.6022,-35.1746 12.7954,-53.3333 4.1933,-18.1587 9.8936,-44.44445 12.6677,-58.4127 2.7741,-13.96825 6.815,-32.25397 8.9798,-40.63492 2.1651,-8.38095 5.0139,-16.54243 6.3307,-18.13661 1.3171,-1.59418 7.4466,-3.6561 13.6211,-4.58204 6.1747,-0.92595 15.4016,-0.90032 20.5044,0.0569 7.5563,1.41754 9.988,3.4405 13.106,10.9025 2.1054,5.03908 5.3712,17.1749 7.2574,26.9685 1.8862,9.7936 7.5647,40.09227 12.6192,67.33037 5.0544,27.2381 11.3818,56.0592 14.0612,64.0468 2.6791,7.9877 4.8711,18.5591 4.8711,23.4921 v 8.969 h -17.4959 -17.4956 l -4.4805,-17.1428 c -2.464,-9.4286 -5.7339,-18.5199 -7.2661,-20.2028 -1.9537,-2.1462 -5.8194,-2.4154 -12.9445,-0.9017 -5.5873,1.187 -14.3281,2.8796 -19.424,3.7613 -7.3843,1.2778 -9.604,3.0076 -10.9343,8.5208 -0.9181,3.8047 -2.7926,11.2033 -4.1659,16.4414 l -2.497,9.5238 h -17.6797 z m 46.2108,-71.4835 c 5.823,-1.3083 11.3425,-2.8455 12.2656,-3.4161 0.9232,-0.5705 -0.8759,-12.8086 -3.9979,-27.1958 -3.1221,-14.38722 -5.8743,-26.73 -6.1158,-27.42841 -0.2413,-0.69842 -3.5848,11.87301 -7.4289,27.93651 -3.844,16.0635 -6.6115,29.9435 -6.1498,30.8445 0.4617,0.901 5.6038,0.5677 11.4268,-0.7407 z m -713.3805,67.9807 c -8.0505,0.3496 -16.923,0.074 -19.7167,-0.6129 -2.7936,-0.6867 -8.2659,-2.4841 -12.1605,-3.9941 -4.0488,-1.5698 -9.8985,-7.5529 -13.6598,-13.9711 -6.1944,-10.5698 -6.5108,-12.75 -5.4177,-37.328 0.9974,-22.4261 2.2648,-28.4616 8.9982,-42.8506 4.3106,-9.2114 12.7329,-22.05908 18.7164,-28.55038 5.9835,-6.49128 14.0244,-13.42885 17.8687,-15.41687 3.8444,-1.98798 10.8924,-3.61452 15.6623,-3.61452 4.7699,0 11.4451,2.18092 14.8338,4.8465 3.3888,2.6656 9.3513,10.7074 13.25,17.87073 5.8197,10.69265 7.3308,17.21304 8.4408,36.42334 0.7529,13.0292 0.084,30.1522 -1.5083,38.6372 -1.5732,8.381 -5.9901,20.2709 -9.8152,26.4222 -3.8251,6.1512 -10.0822,13.5058 -13.9047,16.3434 -4.7348,3.5149 -11.6154,5.3619 -21.5873,5.7951 z m -7.3291,-27.6188 c 1.5678,-0.4689 5.494,-6.1277 8.7249,-12.575 3.2309,-6.4474 6.4807,-17.8247 7.2217,-25.2828 0.7411,-7.4582 0.1148,-16.7324 -1.3918,-20.6095 -1.5066,-3.8771 -4.5474,-7.7431 -6.7575,-8.5912 -2.2101,-0.8481 -5.2304,-0.3299 -6.7118,1.1514 -1.4813,1.4814 -4.2337,8.6316 -6.1163,15.8893 -2.6986,10.4031 -2.8301,17.1827 -0.6213,32.0331 1.7363,11.6745 3.8855,18.5131 5.6521,17.9847 z m 182.5672,-25.647 c -8.0505,0.3868 -18.6373,-0.4894 -23.5262,-1.9472 -4.8889,-1.4578 -11.5689,-5.1288 -14.8445,-8.1579 -3.2756,-3.029 -7.7015,-8.8646 -9.8355,-12.968 -2.9965,-5.7621 -3.619,-13.3287 -2.7338,-33.232 0.979,-22.01153 2.2798,-28.1936 8.9167,-42.37636 4.2738,-9.13285 12.0981,-21.39533 17.3874,-27.24993 5.2893,-5.85458 12.7889,-12.285 16.6657,-14.28983 3.8769,-2.0048 10.9413,-3.6451 15.6987,-3.6451 5.9562,0 12.2342,2.73691 20.1603,8.7889 6.5187,4.97745 12.8082,12.41176 14.503,17.14286 1.6459,4.59466 3.6188,18.63967 4.3842,31.21109 0.7789,12.79307 0.132,29.56657 -1.4688,38.09527 -1.5732,8.3809 -5.9901,20.2709 -9.8152,26.4222 -3.8251,6.1512 -10.0822,13.5057 -13.9047,16.3434 -4.6935,3.4841 -11.7025,5.3876 -21.5873,5.8626 z m -5.5038,-29.5806 c 1.2055,0 4.6814,-4.8572 7.7243,-10.7937 3.5868,-6.9976 5.9547,-17.2601 6.7331,-29.18056 0.8215,-12.58004 0.1956,-19.59822 -1.9823,-22.22222 -1.7506,-2.10941 -4.7279,-3.83527 -6.6163,-3.83527 -1.8883,0 -5.177,3.3718 -7.3081,7.49292 -2.5135,4.8606 -3.8625,14.45189 -3.84,27.30159 0.02,10.89474 0.7238,22.38004 1.566,25.52294 0.8423,3.1429 2.5177,5.7143 3.7233,5.7143 z"
         style="fill:#FDCF3B;stroke-width:2.53968" />
      <path
         id="path26"
         d="m 586.66669,1182.9185 c -5.72333,0.4484 -14.31558,-1.9015 -24.12699,-6.5983 -10.38936,-4.9736 -20.49089,-12.8805 -31.74603,-24.849 -9.07936,-9.6548 -21.07937,-24.3967 -26.66667,-32.7598 -5.5873,-8.3631 -16.14905,-27.2087 -23.47052,-41.8792 l -13.31183,-26.6735 -0.0604,25.3968 c -0.0333,13.9683 -0.9233,26.7539 -1.97796,28.4126 -1.05468,1.6586 -5.11157,4.23 -9.01534,5.7142 -3.90374,1.4843 -10.22334,2.6986 -14.04353,2.6986 -3.82016,0 -8.31721,-1.3714 -9.9934,-3.0476 -2.2531,-2.2531 -3.04761,-25.9899 -3.04761,-91.0496 0,-55.19365 0.99921,-90.86829 2.6802,-95.69036 2.34014,-6.71299 4.19284,-7.88107 14.60317,-9.20689 6.55764,-0.83515 17.7567,-2.24675 24.88684,-3.13691 8.76383,-1.09412 17.55428,-0.28399 27.1327,2.50052 7.79286,2.26545 17.60904,7.01374 21.81374,10.55177 4.37691,3.68292 9.97729,12.63012 13.10113,20.93051 3.82844,10.1725 5.11517,18.13529 4.31299,26.69029 -0.76866,8.19741 -3.64963,15.68698 -8.79233,22.85714 -4.20699,5.86555 -12.36917,13.32173 -18.13819,16.56923 -5.76904,3.2475 -10.48914,7.1113 -10.48914,8.5863 0,1.4749 5.373,14.8179 11.93999,29.651 6.56701,14.8331 16.56701,34.8243 22.22222,44.425 5.65524,9.6006 16.56795,23.9593 24.25049,31.9081 7.68254,7.9489 19.44808,17.0777 26.14563,20.2863 l 12.17737,5.8338 -0.7488,15.5913 -0.7488,15.5914 z M 477.47519,980.31742 c 4.32104,0 11.13816,-1.69704 15.14913,-3.7712 4.011,-2.07416 9.77428,-7.25623 12.80729,-11.51571 5.1457,-7.22648 5.24531,-8.15545 1.48927,-13.88789 -2.35299,-3.59114 -7.55949,-6.8064 -12.53229,-7.7393 -4.67886,-0.87777 -11.83035,-1.21689 -15.89224,-0.7536 -7.31698,0.83454 -7.3921,1.01244 -8.13141,19.255 l -0.74618,18.4127 z m -190.6622,200.63488 c -9.68363,0 -17.60663,-1.0369 -17.60663,-2.3044 0,-1.2674 5.82395,-26.6959 12.94212,-56.5079 7.11815,-29.8119 16.87843,-71.3464 21.6895,-92.2988 4.81105,-20.9524 10.32145,-46.66663 12.24528,-57.14283 1.92386,-10.47619 5.43756,-26.73079 7.80826,-36.12134 2.37066,-9.39053 5.85216,-18.35332 7.73663,-19.91731 1.88447,-1.56396 10.99083,-3.02364 20.23637,-3.24373 14.82606,-0.35291 17.3808,0.30265 21.64597,5.55454 2.65976,3.2751 5.95784,10.13224 7.32907,15.23809 1.37125,5.10588 5.4595,25.28341 9.08505,44.83896 3.62553,19.55556 8.76711,47.55552 11.42573,62.22222 2.65861,14.6667 7.1567,33.417 9.99573,41.6674 2.83904,8.2504 5.16188,18.8219 5.16188,23.4921 v 8.4913 h -17.40084 -17.40084 l -4.51352,-17.1429 c -2.48244,-9.4285 -5.79492,-18.5059 -7.36107,-20.1718 -2.20254,-2.3429 -7.10113,-2.2121 -21.62618,0.5776 -10.32823,1.9836 -19.26992,4.0978 -19.87038,4.6983 -0.60048,0.6005 -5.63022,20.912 -11.17722,45.1367 -5.54699,24.2247 -10.68233,46.0449 -11.41186,48.4894 -1.09762,3.6779 -4.36325,4.4444 -18.93305,4.4444 z m 61.52221,-137.5152 c 5.82296,-1.3083 11.3425,-2.8455 12.26563,-3.4161 0.92315,-0.5705 -0.69153,-12.4279 -3.58817,-26.3497 -2.89663,-13.92183 -5.94783,-25.99342 -6.78044,-26.8258 -0.83259,-0.83236 -4.37895,11.35832 -7.88082,27.0904 -3.50184,15.732 -5.97018,29.3409 -5.4852,30.2419 0.485,0.901 5.64604,0.5677 11.469,-0.7407 z m 283.40791,126.6889 c -9.76246,0.7467 -14.93389,-0.1377 -19.32137,-3.3037 -5.80577,-4.1897 -5.93583,-5.0588 -4.20742,-28.1125 l 1.78354,-23.7892 h -10.49691 c -5.77331,0 -15.06766,-2.3318 -20.65412,-5.1818 -5.58644,-2.85 -12.39457,-8.85 -15.12917,-13.3334 -2.7346,-4.4833 -7.49725,-15.58 -10.58367,-24.6594 -4.29425,-12.6325 -5.58227,-22.1721 -5.48655,-40.6349 0.0688,-13.2699 1.57976,-30.9842 3.35763,-39.36511 1.77788,-8.38095 5.5405,-21.43101 8.36138,-29.00015 2.82087,-7.56914 9.78583,-18.81427 15.47766,-24.9892 5.69186,-6.17491 15.78527,-13.982 22.42984,-17.34906 9.06075,-4.59141 16.18377,-6.1219 28.49199,-6.1219 11.5328,0 17.59726,1.18631 20.40188,3.99093 3.05943,3.05943 3.99093,9.53755 3.99093,27.7551 0,18.21755 -0.9315,24.69567 -3.99093,27.7551 -2.195,2.19502 -7.195,3.99093 -11.11111,3.99093 -3.91609,0 -10.69161,-0.71429 -15.05669,-1.5873 -6.68045,-1.3361 -7.93651,-2.74286 -7.93651,-8.88889 0,-4.70334 -1.31751,-7.30159 -3.70247,-7.30159 -2.03634,0 -6.75634,5.21108 -10.48889,11.58014 -3.73252,6.36909 -8.92356,19.72038 -11.53562,29.6695 -2.61206,9.9492 -4.74921,26.245 -4.74921,36.2129 0,9.9679 1.72877,23.7595 3.8417,30.6479 2.11294,6.8885 5.57227,14.7849 7.68737,17.5478 3.01422,3.9372 4.79177,4.4356 8.22179,2.3054 2.40686,-1.4948 5.69653,-5.4696 7.31038,-8.8328 1.61384,-3.3632 3.32812,-13.5435 3.80952,-22.6229 0.82418,-15.5441 0.53798,-16.5558 -4.90156,-17.3277 -3.17727,-0.4509 -7.36973,-3.308 -9.31657,-6.3492 -1.94685,-3.0412 -3.91871,-8.3027 -4.3819,-11.6923 -0.6881,-5.0355 0.55157,-6.5019 6.77689,-8.0163 4.19048,-1.0195 16.40785,-2.3559 27.14972,-2.9698 10.74187,-0.614 20.92411,-0.2551 22.6272,0.7975 2.41346,1.4915 2.55246,18.761 0.63015,78.2839 -1.35653,42.0037 -3.25438,77.1582 -4.21745,78.1213 -0.96308,0.9631 -7.74972,2.2099 -15.08145,2.7707 z m 566.39639,-49.1893 c -6.631,1.6028 -7.4415,0.6787 -18.2093,-20.7612 -6.1982,-12.3413 -15.0272,-33.2 -19.6201,-46.3527 -8.0262,-22.9847 -8.416,-23.5698 -10.0314,-15.0589 -0.9243,4.8703 -3.0824,22.5694 -4.7956,39.3313 -1.7133,16.7619 -3.5405,31.9048 -4.0606,33.6508 -0.6036,2.0264 -5.7968,3.1605 -14.3586,3.1357 -7.3772,-0.02 -14.6393,-0.8785 -16.138,-1.9048 -1.4987,-1.0262 -3.4972,-3.9554 -4.4411,-6.5093 -0.9439,-2.5539 0.02,-33.4111 2.1436,-68.5714 2.1228,-35.1604 4.8766,-76.25964 6.1196,-91.33164 1.2429,-15.07202 3.6379,-29.06418 5.3223,-31.09371 2.2206,-2.67563 5.9482,-3.25356 13.5596,-2.10235 5.7734,0.87324 14.1225,3.05567 18.5536,4.84983 4.431,1.79418 9.7457,5.92904 11.8105,9.18854 2.0648,3.25953 9.0417,26.94017 15.5042,52.62362 6.4625,25.68341 12.8273,48.54061 14.144,50.79361 1.9574,3.3496 2.4067,2.9388 2.4642,-2.2527 0.039,-3.4921 1.8224,-29.20636 3.9639,-57.14287 2.1415,-27.9365 4.9773,-53.36507 6.3017,-56.50793 1.3902,-3.29897 4.6208,-5.71429 7.643,-5.71429 2.8793,0 9.6778,2.26654 15.1079,5.03678 5.4301,2.77023 10.6328,7.43098 11.5615,10.35723 0.9288,2.92625 0.4726,14.65968 -1.0136,26.07434 -1.4863,11.41462 -3.832,34.46816 -5.2128,51.23004 -1.3807,16.7619 -3.1628,43.0476 -3.9601,58.4127 -0.7974,15.3651 -2.0556,32.7937 -2.7961,38.7302 -0.926,7.4236 -2.563,10.7936 -5.2431,10.7936 -2.1432,0 -6.9303,2.1191 -10.638,4.709 -3.7077,2.59 -9.8643,5.4639 -13.6812,6.3865 z M 886.11249,1120 H 868.6747 l -4.83157,-9.5239 c -2.65737,-5.238 -10.05194,-22.9033 -16.43233,-39.2561 -6.38042,-16.3528 -12.8978,-34.5491 -14.48305,-40.4363 -1.84934,-6.8679 -3.58832,-9.5616 -4.85234,-7.5164 -1.08353,1.7532 -1.49854,10.8067 -0.92221,20.1189 0.57633,9.3122 0.0874,18.3214 -1.08627,20.0204 -1.17377,1.6991 -8.64348,3.8543 -16.59934,4.7893 -10.58416,1.244 -15.59183,0.7652 -18.66416,-1.7846 -3.72373,-3.0905 -4.0032,-8.0875 -2.46943,-44.1545 0.95121,-22.36823 2.88622,-54.2926 4.30001,-70.94298 1.41379,-16.65039 3.69321,-32.3712 5.06537,-34.93511 2.05438,-3.83863 4.38339,-4.37575 13.19142,-3.04209 5.8831,0.89077 14.32193,3.08755 18.75296,4.88171 4.43104,1.79418 9.9309,6.12297 12.22195,9.61953 2.29102,3.49655 8.6128,23.87771 14.04835,45.29147 5.43556,21.41377 11.53699,44.07697 13.55871,50.36267 2.07647,6.4559 3.83705,9.2185 4.0463,6.3492 0.20368,-2.7936 2.4032,-29.7232 4.88764,-59.84345 2.48447,-30.12028 5.35535,-56.12027 6.37976,-57.77777 1.02438,-1.65753 4.36653,-2.99487 7.42695,-2.97189 3.06042,0.0229 10.13582,2.63873 15.72312,5.81278 9.94217,5.64797 10.15596,6.06664 10.02923,19.64076 -0.0714,7.62837 -2.01407,35.01262 -4.31741,60.85389 -2.30334,25.84128 -4.86831,59.55558 -5.69993,74.92058 -0.83165,15.3651 -2.16142,32.7937 -2.9551,38.7302 L 903.55028,1120 Z m -135.05989,-2.7929 c -38.03129,-0.1392 -71.9308,-1.0304 -75.33219,-1.9803 l -6.18441,-1.7272 -0.16483,-96.8536 c -0.0907,-53.2695 0.59792,-97.61726 1.53014,-98.55062 0.93224,-0.93333 21.50367,-2.55878 45.71428,-3.61209 24.21065,-1.05331 45.00567,-1.05661 46.21118,-0.008 1.20549,1.04925 2.75083,6.86715 3.43406,12.92871 1.00858,8.94819 0.24,11.92795 -4.08612,15.8431 -4.01821,3.63642 -10.79492,5.19596 -27.56104,6.34271 l -22.23269,1.52088 -0.78075,13.7116 -0.78077,13.71157 18.01274,-1.67411 c 9.90703,-0.92076 20.8298,-0.96706 24.27284,-0.10286 5.55139,1.39332 6.26007,2.93298 6.26007,13.60066 0,8.42857 -1.39025,13.28765 -4.64442,16.23255 -3.33415,3.0174 -9.37316,4.2032 -21.40589,4.2032 -11.85146,0 -17.93057,1.1691 -20.75241,3.9909 -2.60567,2.6057 -3.98565,8.556 -3.97572,17.1429 0.008,7.2335 0.75466,22.6514 1.65841,34.2618 l 1.6432,21.1099 56.43086,-0.5073 c 31.03695,-0.279 57.78614,0.3303 59.44264,1.3541 1.91548,1.1838 2.4047,4.7779 1.34398,9.8736 -0.91728,4.4067 -3.29626,10.5836 -5.28658,13.7265 -3.61483,5.708 -3.69448,5.714 -72.76658,5.4611 z m 224.57806,0.2532 c -4.0643,0 -8.49358,-1.4286 -9.84284,-3.1746 -1.34928,-1.7461 -2.62646,-14.0318 -2.83822,-27.3016 -0.21181,-13.2699 -1.1135,-50.0051 -2.00394,-81.634 l -1.61894,-57.50704 -10.14014,-1.62146 c -5.5771,-0.89181 -12.13763,-2.69049 -14.579,-3.99708 -2.44135,-1.30656 -5.7886,-7.73597 -7.4383,-14.28754 -2.40833,-9.56439 -2.34677,-12.35175 0.31248,-14.14354 1.82156,-1.22738 7.31193,-1.63132 12.20081,-0.89763 4.88889,0.73369 41.89961,1.34654 82.24603,1.36191 l 73.3571,0.0279 -1.2926,18.06598 c -0.813,11.36242 -2.5888,18.88699 -4.7857,20.27858 -1.9212,1.21691 -21.3708,2.2301 -43.2214,2.25148 -33.8606,0.0333 -39.9559,0.6322 -41.2698,4.05613 -0.8479,2.20947 -1.5416,33.49518 -1.5416,69.52381 0,36.0286 -0.74,69.2068 -1.6445,73.7292 -1.2365,6.1823 -3.737,9.097 -10.07716,11.7461 -4.63794,1.9379 -11.75797,3.5234 -15.82228,3.5234 z m 92.65424,0 c -6.9902,0 -12.9609,-1.5468 -15.405,-3.991 -3.4141,-3.414 -3.991,-13.1161 -3.991,-67.1201 0,-54.00402 0.5769,-63.70617 3.991,-67.12021 2.8003,-2.80038 8.8614,-3.99093 20.3174,-3.99093 h 16.3266 v 68.48204 c 0,65.107 -0.2421,68.6117 -4.9125,71.1111 -2.7018,1.446 -10.0487,2.6291 -16.3265,2.6291 z m 196.3792,-2.5397 c -9.724,0 -17.6799,-0.5828 -17.6799,-1.2951 0,-0.7124 3.8944,-17.5695 8.6543,-37.4604 4.7598,-19.8908 11.6384,-49.8794 15.2857,-66.6413 3.6473,-16.76193 9.7584,-44.75566 13.5802,-62.20831 l 6.9488,-31.73208 14.4745,-2.02149 c 7.961,-1.1118 18.2314,-1.04795 22.8232,0.14197 6.8508,1.77524 9.1151,4.22733 12.6199,13.66707 2.3492,6.32704 9.5005,40.07553 15.8918,74.99664 6.3913,34.9211 13.8794,70.2458 16.6403,78.4992 2.7609,8.2534 5.048,19.292 5.0823,24.5301 l 0.062,9.5237 h -17.4691 -17.469 l -4.2939,-17.0943 c -2.3617,-9.4019 -5.4885,-18.5337 -6.9486,-20.2929 -1.46,-1.7592 -5.0952,-2.6832 -8.0783,-2.0533 -2.983,0.6299 -11.8858,2.3915 -19.7841,3.9146 -12.5055,2.4116 -14.5739,3.6547 -16.0137,9.6238 -0.9093,3.77 -2.7769,11.1402 -4.1502,16.3783 l -2.4969,9.5238 z m 40.0979,-69.4805 c 2.4444,-0.6883 8.2623,-2.0217 12.9286,-2.9632 7.1477,-1.4422 8.2501,-2.5722 6.9981,-7.1737 -0.8173,-3.0041 -3.4282,-15.462 -5.802,-27.6842 -2.3738,-12.22221 -4.9742,-22.22221 -5.7788,-22.22221 -0.8046,0 -4.0306,11.71428 -7.1688,26.03171 -3.1382,14.3175 -5.6869,28.1088 -5.6637,30.6474 0.029,3.171 1.4331,4.2239 4.4866,3.3642 z"
         style="fill:#96C7E7;stroke-width:2.53968" />
      <path
         id="path24"
         d="m 1508.5715,1180.7077 c -9.0794,-0.086 -18.2222,-0.7699 -20.3175,-1.5198 -2.0952,-0.7499 -11.5238,-8.9147 -20.9524,-18.1441 -9.4285,-9.2293 -17.1307,-17.9541 -17.1158,-19.3884 0.015,-1.4343 4.6398,-8.3221 10.2776,-15.3062 5.6379,-6.9842 20.5644,-27.5556 33.17,-45.7143 12.6056,-18.1588 28.4911,-40.9998 35.3011,-50.7578 6.8101,-9.7581 17.7959,-28.2925 24.4129,-41.18764 9.2773,-18.07939 12.2799,-26.88708 13.1185,-38.48134 0.9247,-12.78408 0.2843,-15.83894 -4.2764,-20.3997 -3.3336,-3.33356 -8.5991,-5.36401 -13.9104,-5.36401 -4.9494,0 -11.6301,2.37996 -15.873,5.65463 -4.0297,3.11004 -8.781,7.39576 -10.5585,9.52381 -1.7775,2.12805 -5.515,8.15489 -8.3056,13.39299 -4.6843,8.79283 -5.9312,9.52381 -16.2449,9.52381 -6.1441,0 -14.753,-2 -19.1309,-4.44445 -6.8366,-3.81732 -7.7571,-5.49704 -6.5233,-11.90443 0.79,-4.10298 4.1572,-13.24584 7.4825,-20.31746 3.3254,-7.07162 11.4479,-18.91243 18.0499,-26.31291 6.6021,-7.40051 17.867,-16.81836 25.0333,-20.92856 9.4043,-5.3938 16.4088,-7.47972 25.1746,-7.49694 6.6798,-0.0127 16.1079,1.63195 20.9514,3.65569 4.8435,2.02373 12.5211,6.51566 17.0613,9.98205 4.5402,3.46636 11.9639,12.42867 16.4969,19.91619 4.5331,7.48752 9.4795,20.30786 10.992,28.48965 1.9486,10.54118 1.9715,20.66014 0.079,34.72584 -1.5188,11.28586 -5.799,26.73742 -9.9207,35.81398 -3.9871,8.7803 -16.95,30.8213 -28.8063,48.9801 -11.8564,18.1587 -27.522,39.8115 -34.8123,48.1173 -7.2905,8.3058 -12.9083,16.8772 -12.4842,19.0476 0.6169,3.1568 4.3182,3.8808 18.503,3.6194 9.7525,-0.1798 25.1604,-0.6689 34.2397,-1.0871 11.5691,-0.5328 18.8704,0.4789 24.4042,3.3817 4.343,2.278 9.3359,7.6176 11.0956,11.8657 2.7055,6.5318 2.5673,8.6884 -0.896,13.9739 -3.0798,4.7005 -10.455,8.2128 -29.7456,14.1656 -14.1077,4.3535 -33.2578,9.5278 -42.5559,11.4985 -9.298,1.9707 -24.334,3.5128 -33.4134,3.4267 z m 512.7453,-0.7414 c -22.8988,0.1562 -44.629,-0.1913 -48.2892,-0.7719 -4.8521,-0.7696 -8.4719,-4.3939 -13.3615,-13.3776 -3.6886,-6.7771 -8.3565,-16.9985 -10.3731,-22.7143 -3.6619,-10.3789 -3.6571,-10.3973 3.7116,-14.2078 4.3601,-2.2547 14.1822,-3.8154 24.0122,-3.8154 h 16.6341 l 0.1917,-15.873 c 0.1054,-8.7302 1.0679,-49.5873 2.1387,-90.7936 1.0709,-41.20639 1.4299,-76.3591 0.798,-78.11719 -0.6319,-1.7581 -3.796,-3.86088 -7.0312,-4.67287 -3.2351,-0.81198 -7.747,-3.53694 -10.0262,-6.05549 -3.7416,-4.13437 -3.7745,-5.46369 -0.339,-13.68609 2.0929,-5.00882 8.8568,-14.55967 15.031,-21.22418 6.1742,-6.66448 12.5686,-14.68866 14.2097,-17.83152 1.8854,-3.61074 5.3254,-5.71428 9.3448,-5.71428 3.4986,0 10.7789,2.25384 16.1785,5.00851 5.3996,2.75469 12.2361,8.08322 15.1921,11.84121 2.9561,3.758 6.0292,9.44077 6.8293,12.62837 0.8,3.18758 0.2382,23.85905 -1.2486,45.93653 -1.4868,22.07751 -3.0017,71.4748 -3.3665,109.7718 l -0.6632,69.6309 8.8407,2.9643 c 8.7197,2.9236 8.8618,3.2049 10.3698,20.5278 1.2334,14.169 0.6903,18.7907 -2.8102,23.9128 -4.3167,6.3163 -4.5551,6.3507 -45.9734,6.633 z m -173.6977,-5.4962 -48.254,1.3299 -15.6099,-17.2217 -15.6099,-17.2217 18.1496,-24.241 c 9.9823,-13.3325 30.5958,-42.2675 45.8079,-64.3 15.2121,-22.0325 33.8949,-52.2151 41.5175,-67.0723 8.6024,-16.76698 14.2997,-31.34809 15.0206,-38.44175 0.8711,-8.57181 -0.1339,-13.49178 -4.0199,-19.68254 -4.2444,-6.7617 -6.7937,-8.25397 -14.1001,-8.25397 -6.7067,0 -11.4813,2.31495 -19.2494,9.33296 -5.6817,5.13313 -11.8727,12.31547 -13.7578,15.96076 -1.8851,3.6453 -4.2277,10.89412 -5.2059,16.10847 -1.0503,5.59835 -4.3997,11.54232 -8.1793,14.5154 -3.5204,2.76914 -9.0857,5.03479 -12.3674,5.03479 -3.2816,0 -9.56,-3.21074 -13.952,-7.13496 -6.4125,-5.72952 -8.2258,-9.6371 -9.206,-19.83763 -0.9134,-9.50634 0.1928,-15.98786 4.3959,-25.75848 3.4139,-7.9359 10.9516,-18.10159 19.2211,-25.92254 7.4826,-7.0767 19.0799,-15.28835 25.7717,-18.24815 7.7841,-3.44287 19.6076,-5.82263 32.822,-6.6062 15.2127,-0.90204 24.0279,-0.10438 33.4558,3.02695 8.6032,2.85755 16.1327,7.86644 22.9617,15.27507 5.5885,6.06283 11.3842,15.42873 12.8793,20.81306 1.4951,5.38435 2.7247,13.89262 2.7324,18.90727 0.01,5.01466 -2.2244,17.87063 -4.9606,28.56884 -2.7361,10.69821 -9.1236,27.73816 -14.1945,37.86655 -5.0708,10.1284 -13.3513,25.2724 -18.4012,33.6534 -5.0499,8.3809 -17.9845,28.3809 -28.7436,44.4444 -10.7591,16.0635 -22.5256,31.977 -26.1477,35.3634 -3.6222,3.3863 -6.5858,7.0367 -6.5858,8.1118 0,1.0752 14.5714,1.743 32.3809,1.4839 25.8096,-0.3754 34.3323,0.408 41.9962,3.8602 6.7714,3.0502 10.7778,7.1138 13.5461,13.7393 2.9375,7.0302 3.2631,10.8736 1.2886,15.2073 -1.4533,3.1896 -6.0005,7.5359 -10.1049,9.6584 -4.1044,2.1225 -11.8683,4.4197 -17.253,5.1049 -5.3847,0.6853 -31.5047,1.8444 -58.0444,2.5759 z m -142.606,-3.8375 c -3.9794,-0.089 -9.846,-1.2091 -13.0368,-2.4901 -3.1908,-1.281 -10.387,-6.0141 -15.9913,-10.5179 -6.5529,-5.266 -13.321,-14.5751 -18.9623,-26.0813 -4.8249,-9.8409 -11.0552,-26.924 -13.8451,-37.9625 -2.79,-11.0385 -6.3539,-30.4671 -7.9198,-43.1746 -1.566,-12.7076 -2.152,-33.9618 -1.3023,-47.2316 0.8496,-13.26988 3.2829,-30.98416 5.4072,-39.36511 2.1243,-8.38096 8.3873,-24.38096 13.9177,-35.55556 5.5304,-11.1746 14.6716,-25.23487 20.3139,-31.245 5.6423,-6.01016 15.1061,-13.12792 21.0307,-15.81724 5.9245,-2.68932 13.1718,-4.9148 16.1051,-4.94548 2.9333,-0.0307 9.8642,3.22642 15.402,7.238 5.5378,4.01155 13.8719,12.09567 18.5203,17.96469 4.6483,5.86903 10.0544,15.32333 12.0135,21.00958 1.9591,5.68625 5.204,21.88782 7.211,36.00353 2.0071,14.11573 3.6453,43.95069 3.6407,66.29989 -0.01,22.3492 -1.5263,52.0635 -3.3813,66.0317 -2.3091,17.3877 -5.5234,29.6304 -10.1926,38.8213 -3.7511,7.3835 -10.8068,17.8375 -15.6796,23.231 -4.8728,5.3936 -12.7197,11.6383 -17.4377,13.8771 -4.7179,2.2388 -11.834,3.9982 -15.8133,3.9096 z m 0.5363,-66.9196 c 1.8895,-2.5842 4.5844,-10.5482 5.9884,-17.6978 1.4041,-7.1497 3.7788,-27.2851 5.2771,-44.7454 1.4984,-17.4603 3.4124,-42.114 4.2533,-54.78598 1.0089,-15.20261 0.4803,-26.21742 -1.5539,-32.38095 -1.6955,-5.13755 -4.0104,-9.341 -5.1441,-9.341 -1.1338,0 -4.5179,2 -7.5202,4.44444 -3.0024,2.44445 -8.4179,12.44445 -12.0345,22.22222 -4.8479,13.10652 -6.9031,24.451 -7.8217,43.17457 -0.8941,18.2219 -0.018,31.4084 3.098,46.6754 2.3892,11.7032 6.0716,27.0959 8.183,34.2058 3.505,11.8027 4.1378,12.5185 7.2746,8.2287 z M 159.03241,667.55596 c -12.73766,-0.20929 -26.58796,-0.83527 -30.77844,-1.39106 -4.19047,-0.55578 -13.90476,-2.77277 -21.5873,-4.92663 -7.682539,-2.15385 -21.591271,-7.9072 -30.90829,-12.78519 C 65.296759,642.9758 52.897505,633.41803 43.336294,623.461 33.263742,612.97151 24.786553,600.84274 19.074479,588.7484 14.245609,578.52407 8.2981613,562.73014 5.8579296,553.65077 2.6327059,541.6507 1.4211446,527.4336 1.4211446,501.58728 c 0,-25.59685 1.2272814,-40.17922 4.3817641,-52.06349 2.4099703,-9.07936 8.9224983,-25.77463 14.4722843,-37.10057 7.773984,-15.86509 14.142764,-24.41534 27.741548,-37.24373 10.528704,-9.93224 24.232288,-19.79202 33.961144,-24.4352 8.970563,-4.28124 24.195315,-9.68622 33.832785,-12.01107 11.25588,-2.71525 27.96799,-4.20183 46.72902,-4.15662 16.97634,0.0409 37.18244,1.7812 48.25397,4.15603 10.47619,2.24714 29.90476,7.11955 43.1746,10.82753 13.26985,3.70802 24.46251,7.00465 24.87259,7.32587 0.41008,0.32119 -3.74103,13.58182 -9.22471,29.46804 -9.64292,27.93549 -10.20953,28.87733 -17.25356,28.68091 -4.00576,-0.11172 -16.42606,-2.80152 -27.60067,-5.97735 -12.53375,-3.5621 -30.53358,-6.26912 -46.98413,-7.06603 -15.87572,-0.76904 -30.87473,-0.15212 -37.06567,1.52455 -5.71945,1.54895 -15.29331,6.10334 -21.27524,10.12086 -5.98193,4.0175 -14.19138,12.24069 -18.24323,18.27373 -4.051841,6.03307 -9.286271,17.32119 -11.632067,25.08477 -2.908409,9.62558 -4.281885,23.40577 -4.317913,43.32193 -0.03782,20.90011 1.245999,33.54004 4.514121,44.44444 2.511822,8.38096 7.664587,19.77976 11.450589,25.33069 3.786,5.55094 11.42007,13.25702 16.96462,17.12463 5.54454,3.86763 17.98266,8.965 27.64028,11.32749 15.1498,3.70603 21.08379,3.90159 43.24423,1.42522 14.12671,-1.57862 35.18913,-5.87259 46.80539,-9.54217 11.61625,-3.66957 21.58575,-6.20663 22.15444,-5.63795 0.56871,0.56869 5.64107,13.94908 11.27192,29.73417 5.63086,15.78509 9.7183,29.21979 9.0832,29.85488 -0.63509,0.63513 -12.38585,4.42949 -26.11279,8.43198 -13.72693,4.00246 -35.10777,9.04312 -47.51296,11.20145 -12.40519,2.15832 -32.97662,3.75299 -45.71429,3.54369 z m 310.80888,-0.70748 c -18.85715,0.46238 -39.35007,-0.22222 -45.53984,-1.5215 -6.18979,-1.29922 -18.40744,-4.74268 -27.15035,-7.65214 -8.74291,-2.90946 -22.5357,-9.59001 -30.65062,-14.84571 -8.11494,-5.25569 -20.75728,-16.13755 -28.09409,-24.18187 -7.33682,-8.04431 -17.29433,-22.8481 -22.1278,-32.89731 -4.83347,-10.0492 -10.69405,-26.2397 -13.02349,-35.97887 -2.76612,-11.56493 -4.21136,-28.27965 -4.1662,-48.1838 0.0513,-22.61148 1.42926,-35.58857 5.33966,-50.28693 2.89877,-10.89592 9.58362,-28.03878 14.85521,-38.09524 5.63965,-10.75857 15.86095,-24.56071 24.83304,-33.53277 8.84275,-8.84277 22.7645,-19.18809 33.14052,-24.62689 9.84072,-5.15825 26.98357,-11.902 38.09524,-14.98614 15.8686,-4.40447 26.74144,-5.57945 50.67919,-5.47662 22.46792,0.0965 35.69087,1.51812 50.32115,5.41013 10.91474,2.9036 26.91474,8.99109 35.55556,13.52778 8.64083,4.53668 23.41706,15.8673 32.83609,25.17909 13.02115,12.87297 19.53892,22.01923 27.19553,38.16307 5.69833,12.01486 11.9109,30.53166 14.31045,42.65285 3.1604,15.96463 3.90321,29.2252 2.91634,52.06349 -0.9234,21.37031 -3.011,36.02276 -6.89867,48.42088 -3.066,9.77778 -9.39743,24.63492 -14.06984,33.01587 -4.6724,8.38095 -15.71418,22.26608 -24.53729,30.85582 -8.82312,8.58977 -22.32773,19.06423 -30.01027,23.27662 -7.68254,4.2124 -21.96825,10.17902 -31.74603,13.25918 -13.75822,4.33407 -25.52975,5.79037 -52.06349,6.44101 z m -6.17524,-57.50158 c 8.47662,0.0973 21.47487,-1.62357 28.88495,-3.82413 9.00488,-2.67416 17.48953,-7.75809 25.58464,-15.33013 6.94369,-6.49504 14.47728,-16.82799 17.65564,-24.21628 3.04915,-7.08795 7.15223,-20.47512 9.11795,-29.74923 1.96571,-9.27413 3.57402,-24.86207 3.57402,-34.63985 0,-9.77778 -1.62919,-25.46542 -3.6204,-34.86143 -1.99121,-9.39601 -5.84259,-22.10733 -8.55863,-28.24737 -2.71604,-6.14006 -9.07657,-15.74435 -14.13452,-21.3429 -5.05793,-5.59853 -15.1867,-12.86951 -22.50837,-16.15772 -10.7645,-4.83438 -17.6864,-5.98608 -36.16925,-6.0179 -19.9997,-0.0345 -24.68797,0.85968 -37.5023,7.1521 -9.55573,4.69234 -17.66687,11.14893 -23.34044,18.57938 -4.78246,6.26336 -11.33321,19.0272 -14.55726,28.36411 -4.99386,14.4622 -5.86253,22.05351 -5.86591,51.26189 -0.003,29.47431 0.86677,36.95873 6.20066,53.33333 5.18832,15.92765 8.55553,21.40813 20.55711,33.45869 10.35469,10.39695 17.82281,15.47642 26.81128,18.23579 6.85231,2.10362 19.39418,3.90435 27.87083,4.00165 z m 1407.36325,57.43022 c -7.2883,0.54804 -17.2515,-0.20292 -22.1403,-1.66878 -4.8889,-1.46585 -11.569,-5.14346 -14.8445,-8.17249 -3.2756,-3.02901 -7.4038,-8.36445 -9.1739,-11.85651 -1.77,-3.49206 -17.3757,-48.06349 -34.6793,-99.04762 l -31.4611,-92.6984 -0.6628,106.03174 -0.6627,106.03174 h -35.5277 -35.5277 l 0.015,-144.12698 c 0.01,-91.30656 0.9755,-147.58841 2.6373,-153.57193 1.4427,-5.19472 5.4688,-12.82687 8.9469,-16.96038 3.4781,-4.13349 11.7199,-9.59756 18.3151,-12.14235 7.4987,-2.89341 18.6518,-4.62692 29.7691,-4.62692 11.0693,0 22.269,1.73311 29.6798,4.59284 6.5882,2.5423 15.8927,9.01003 20.8405,14.48663 7.8608,8.70095 12.6708,21.28342 39.8968,104.36398 l 30.9584,94.47019 31.051,-91.31207 c 17.078,-50.22164 32.8028,-94.68076 34.9439,-98.79809 2.1412,-4.11731 6.5886,-10.0029 9.8832,-13.07909 3.2947,-3.07619 10.0686,-7.29709 15.0532,-9.37978 4.9846,-2.08272 14.7744,-4.54438 21.7552,-5.47042 7.1499,-0.94847 19.0473,-0.36437 27.2457,1.33762 9.792,2.03279 17.5355,5.63949 23.6679,11.0238 5.0129,4.40137 10.6584,11.69793 12.5456,16.21457 2.747,6.5771 3.4301,37.55523 3.4301,155.59522 V 665.3968 h -36.7975 -36.7976 l -0.6628,-105.39476 -0.6627,-105.39477 -31.5108,92.06143 c -17.3309,50.63378 -33.7243,96.16437 -36.4298,101.17907 -2.7056,5.01471 -8.2768,11.10108 -12.3807,13.52528 -4.1039,2.42421 -13.4247,4.85603 -20.713,5.40407 z m 1156.8037,0.95746 c -12.1653,-0.11099 -28.9757,-1.71398 -37.3567,-3.56211 -8.381,-1.8481 -21.7806,-5.82857 -29.7773,-8.84546 -7.9964,-3.01691 -21.2271,-10.40891 -29.4019,-16.42667 -8.1745,-6.01775 -19.0047,-15.99606 -24.067,-22.17401 -5.0624,-6.17793 -13.2704,-19.79465 -18.24,-30.25931 -4.9697,-10.46468 -10.8341,-27.55791 -13.0319,-37.98496 -2.399,-11.38108 -3.9655,-31.13889 -3.9195,-49.43446 0.056,-22.17658 1.4768,-35.87126 5.2178,-50.28693 2.8277,-10.89593 9.4542,-28.03878 14.7258,-38.09524 5.6755,-10.82687 15.9132,-24.62793 25.1007,-33.83725 10.3213,-10.34576 21.8035,-18.62728 34.2959,-24.736 10.3289,-5.0508 26.2085,-11.1037 35.2879,-13.4509 11.2658,-2.9124 26.1859,-4.21351 46.9841,-4.09722 20.7368,0.11607 37.8499,1.81212 53.5497,5.30758 12.6903,2.82545 34.6903,8.74629 48.8889,13.15744 14.1984,4.41115 25.8154,8.46006 25.8154,8.99761 0,0.53755 -2.4269,7.59167 -5.393,15.67581 -2.9661,8.08414 -6.3947,15.78415 -7.6191,17.11114 -1.2244,1.32698 -2.226,3.93511 -2.226,5.79586 0,1.86072 -1.6422,7.31347 -3.6493,12.1172 l -3.6493,8.73407 -12.2237,-3.80587 c -6.7231,-2.0932 -23.6523,-6.63017 -37.6206,-10.08215 -17.0283,-4.20823 -32.5673,-6.27744 -47.1581,-6.27965 -12.4205,-0.002 -27.5436,1.71391 -35.2325,3.99728 -9.6454,2.86433 -16.8861,7.41517 -25.4941,16.02314 -7.8514,7.85143 -14.0307,17.25727 -17.811,27.11055 -4.2377,11.0463 -6.1237,22.4061 -7.04,42.40721 -0.7574,16.53361 -0.028,33.54553 1.8511,43.08996 1.7065,8.6739 5.7517,20.95167 8.9893,27.28393 3.2373,6.33227 9.7026,15.16897 14.3669,19.63711 4.6644,4.46811 14.1951,10.71624 21.1792,13.88469 10.6918,4.85059 16.912,5.74251 39.3651,5.64463 19.0413,-0.083 33.0804,-1.755 49.0959,-5.84701 12.3362,-3.1519 22.8485,-5.31167 23.3605,-4.7995 0.5122,0.51221 -4.1986,15.05687 -10.4686,32.3215 -6.27,17.26464 -12.4594,33.36985 -13.7544,35.78938 -1.6625,3.10649 -8.0061,5.23978 -21.5881,7.25984 -10.5785,1.57336 -29.187,2.76983 -41.3521,2.65877 z M 717.88363,665.3968 c -21.418,0 -39.70372,-0.76191 -40.63492,-1.69313 -0.93122,-0.9312 -1.66585,-65.78834 -1.63253,-144.12698 0.0333,-78.33861 1.11576,-147.00528 2.40543,-152.59258 1.46885,-6.36358 5.62616,-13.17295 11.12818,-18.22709 4.83083,-4.43762 13.17694,-9.28839 18.54695,-10.77951 5.58981,-1.55215 34.19121,-2.71086 66.90646,-2.71055 31.42858,3e-4 63.42858,1.03774 71.11112,2.30542 7.68254,1.26768 20.5792,4.78651 28.65925,7.81966 9.45536,3.54943 19.95368,10.38712 29.45793,19.18638 10.14629,9.39365 16.93054,18.49273 21.68147,29.07919 3.803,8.47418 8.06418,22.79213 9.46934,31.81765 1.78265,11.45026 1.6995,21.92256 -0.27505,34.64891 -1.55642,10.03139 -5.71906,24.03576 -9.25029,31.12084 -3.53125,7.08508 -11.77508,18.40475 -18.31964,25.15482 -6.54456,6.75007 -17.30857,15.0453 -23.92003,18.43385 -6.61145,3.38855 -18.56584,7.86575 -26.56533,9.94936 -10.09763,2.63009 -27.58172,3.78837 -57.18553,3.78837 h -42.64101 v 58.41269 58.4127 z M 793.0159,489.71114 c 30.49547,-0.69287 37.78908,-1.64472 46.34921,-6.04878 6.87408,-3.53664 12.05808,-8.87419 16.03307,-16.50794 4.81971,-9.25608 5.71751,-14.34451 5.00091,-28.34308 -0.62966,-12.30075 -2.34293,-19.0332 -6.13978,-24.12699 -2.89654,-3.88592 -9.14695,-9.35103 -13.88983,-12.14468 -7.34189,-4.32452 -14.19038,-5.20833 -46.08374,-5.94723 l -37.46031,-0.86783 v 47.40441 47.40442 z M 943.57367,665.3968 c -16.10837,0 -29.28792,-0.99208 -29.28792,-2.20462 0,-1.21255 24.46867,-69.0957 54.37486,-150.85143 29.90616,-81.75575 55.57679,-150.89266 57.04579,-153.63755 1.469,-2.74492 6.6834,-8.5137 11.5875,-12.81953 4.9041,-4.30585 13.2335,-9.02766 18.5097,-10.49288 5.2763,-1.46524 15.879,-2.65927 23.5615,-2.65341 9.3552,0.008 18.2455,2.00224 26.9194,6.0411 7.1231,3.31677 15.3471,9.39532 18.2755,13.50793 2.9284,4.11259 28.9725,74.24485 57.8758,155.84947 28.9032,81.60462 53.1059,150.40101 53.7835,152.88088 1.1493,4.20523 -1.5626,4.46177 -40.2708,3.80953 l -41.503,-0.69933 -9.9504,-28.61658 -9.9504,-28.61656 -59.5254,0.68005 -59.5253,0.68007 -7.2865,18.73174 c -4.0076,10.30247 -9.92236,21.59261 -13.14384,25.08922 -3.22152,3.4966 -9.53486,7.92446 -14.02967,9.83969 -5.34174,2.27609 -18.31685,3.48221 -37.46032,3.48221 z M 1075.8273,546.03172 c 32.6708,0 41.9133,-0.71547 41.0089,-3.1746 -0.6423,-1.74603 -10.0658,-29.93607 -20.9413,-62.64454 l -19.7735,-59.46994 -21.2253,62.00962 c -11.674,34.10529 -21.2299,62.29534 -21.2353,62.64454 -0.01,0.34921 18.9694,0.63492 42.1665,0.63492 z m 286.794,119.36508 c -16.1084,0 -29.2879,-0.99208 -29.2879,-2.20462 0,-1.21255 24.4687,-69.0957 54.3748,-150.85143 29.9062,-81.75575 55.5768,-150.89266 57.0458,-153.63755 1.4691,-2.74492 6.6834,-8.5137 11.5875,-12.81953 4.9041,-4.30585 13.2335,-9.02766 18.5098,-10.49288 5.2762,-1.46524 15.8789,-2.65927 23.5615,-2.65341 9.3551,0.008 18.2454,2.00224 26.9193,6.0411 7.1231,3.31677 15.3471,9.39532 18.2755,13.50793 2.9285,4.11259 28.9725,74.24485 57.8758,155.84947 28.9033,81.60462 53.1059,150.40101 53.7836,152.88088 1.1492,4.20523 -1.5627,4.46177 -40.2708,3.80953 l -41.503,-0.69933 -9.9505,-28.61658 -9.9504,-28.61656 -59.5253,0.68005 -59.5254,0.68007 -7.2865,18.73174 c -4.0076,10.30247 -9.9223,21.59261 -13.1438,25.08922 -3.2215,3.4966 -9.5349,7.92446 -14.0297,9.83969 -5.3417,2.27609 -18.3168,3.48221 -37.4603,3.48221 z M 1494.875,546.03172 c 32.6708,0 41.9133,-0.71547 41.0088,-3.1746 -0.6422,-1.74603 -10.0658,-29.93607 -20.9412,-62.64454 l -19.7736,-59.46994 -21.2253,62.00962 c -11.6739,34.10529 -21.2298,62.29534 -21.2353,62.64454 -0.01,0.34921 18.9695,0.63492 42.1666,0.63492 z m 754.014,118.51538 c -57.2699,0.23111 -107.7224,-0.62794 -112.1169,-1.90893 -4.3944,-1.28099 -11.4228,-5.536 -15.6188,-9.45559 -4.1959,-3.91957 -8.8798,-11.63198 -10.4086,-17.13867 -1.841,-6.6307 -2.7798,-52.47065 -2.7798,-135.72647 0,-74.71494 1.0145,-129.36599 2.5007,-134.71583 1.3754,-4.95083 6.2262,-12.56101 10.7795,-16.91152 4.5533,-4.35047 12.8502,-9.15055 18.4375,-10.66681 6.5039,-1.76503 46.5071,-2.76196 111.1908,-2.77103 87.9517,-0.0127 101.2234,0.48437 102.5098,3.83647 0.8126,2.11784 0.6867,10.18068 -0.28,17.91741 -1.3288,10.63556 -3.7123,16.29321 -9.7716,23.19434 -4.4077,5.02014 -11.7095,10.67159 -16.2261,12.55878 -6.1696,2.5778 -24.3397,3.43121 -73.0556,3.43121 h -64.8435 v 35.55555 35.55556 h 71.1111 71.1112 v 29.16617 29.16617 l -70.4762,0.6751 -70.4762,0.6751 -0.7009,38.69488 -0.7009,38.6949 81.9707,0.67018 81.9708,0.67019 v 29.20635 29.20635 z m 196.1905,0.27926 -40,0.69943 V 514.72577 363.92575 l 5.7229,-8.49224 c 3.1476,-4.67073 9.719,-10.83975 14.6032,-13.7089 8.2777,-4.86273 13.6262,-5.26951 78.8296,-5.99533 55.1325,-0.61369 73.8688,0.0386 88.4526,3.07942 10.1768,2.12193 24.6385,6.66679 32.1369,10.09973 7.4987,3.43294 18.9242,11.53209 25.3903,17.99815 6.466,6.46605 15.0534,18.84299 19.0831,27.5043 4.411,9.48102 7.9934,22.39365 9.0022,32.44807 0.9709,9.67607 0.4726,22.3099 -1.1848,30.03731 -1.5731,7.33539 -5.6025,19.24886 -8.9544,26.47436 -3.3519,7.22553 -11.6307,18.3984 -18.3974,24.82862 -6.7668,6.43025 -14.6878,13.28739 -17.6023,15.2381 -5.2071,3.48533 -4.7569,4.71233 26.003,70.84835 17.2163,37.01587 31.3151,68.18636 31.3308,69.26776 0.025,1.08139 -19.0791,1.65282 -42.433,1.26984 l -42.4617,-0.69633 -25.6879,-58.4127 -25.6881,-58.41269 -33.3906,-0.70832 -33.3906,-0.70829 -0.6819,59.12098 -0.6819,59.12102 z m 79.1997,-177.20733 c 20.8615,0 41.1472,-1.21295 45.0794,-2.69544 3.9322,-1.48252 10.8381,-6.25328 15.3465,-10.60173 4.5082,-4.34844 10.0549,-13.49986 12.3256,-20.33646 2.8747,-8.65518 3.5919,-16.01028 2.3609,-24.21856 -1.3265,-8.8449 -4.1013,-14.1218 -11.1132,-21.13366 -5.1398,-5.13991 -13.8907,-10.60727 -19.4466,-12.14969 -5.5558,-1.5424 -26.3873,-2.81077 -46.292,-2.81854 l -36.1905,-0.0142 v 46.98412 46.98413 z m 252.2288,177.20576 -41.2698,0.69783 V 500.31744 335.11227 l 41.2698,0.69782 41.2699,0.69783 v 163.80952 163.80952 z m 381.6689,0.57201 c -16.1082,0 -29.2879,-0.99208 -29.2879,-2.20462 0,-1.21255 24.4686,-69.0957 54.3749,-150.85143 29.9063,-81.75575 55.5769,-150.89266 57.0458,-153.63755 1.469,-2.74492 6.6834,-8.5137 11.5876,-12.81953 4.9038,-4.30585 13.2332,-9.02766 18.5097,-10.49288 5.2762,-1.46524 15.8788,-2.65927 23.5614,-2.65341 9.3552,0.008 18.2453,2.00224 26.9193,6.0411 7.1231,3.31677 15.3471,9.39532 18.2756,13.50793 2.9283,4.11259 28.9724,74.24485 57.8758,155.84947 28.9031,81.60462 53.1058,150.40101 53.7836,152.88088 1.1492,4.20523 -1.5626,4.46177 -40.271,3.80953 l -41.5029,-0.69933 -9.9505,-28.61658 -9.9502,-28.61656 -59.5254,0.68005 -59.5256,0.68007 -7.2863,18.73174 c -4.0076,10.30247 -9.9223,21.59261 -13.1439,25.08922 -3.2216,3.4966 -9.5347,7.92446 -14.0297,9.83969 -5.3417,2.27609 -18.3167,3.48221 -37.4603,3.48221 z m 132.2537,-119.36508 c 32.6707,0 41.9134,-0.71547 41.0088,-3.1746 -0.6423,-1.74603 -10.0658,-29.93607 -20.9412,-62.64454 l -19.7735,-59.46994 -21.2254,62.00962 c -11.6739,34.10529 -21.2297,62.29534 -21.2353,62.64454 0,0.34921 18.9694,0.63492 42.1666,0.63492 z M 1307.1923,200.63491 c -9.4002,0 -17.1631,-1.83399 -24.7541,-5.84822 -7.5589,-3.99726 -12.9101,-9.34846 -16.9074,-16.90739 -5.669,-10.72024 -5.8465,-13.05111 -5.7924,-76.05653 0.05,-57.985598 0.5679,-66.125082 4.8029,-75.450931 2.6109,-5.749454 8.954,-13.662265 14.0957,-17.5840219 6.7275,-5.1313212 13.1336,-7.4443561 22.8489,-8.25002977 7.4253,-0.61575896 17.4252,0.17572215 22.2222,1.75884687 4.7969,1.5831249 12.2002,6.5711669 16.4519,11.0845378 4.2517,4.513371 9.0264,12.090954 10.6106,16.839076 1.5841,4.748121 2.8802,13.659799 2.8802,19.803727 v 11.170778 l -15.873,-0.756109 -15.873,-0.756107 -1.4692,-11.009533 c -0.8081,-6.055246 -3.0939,-12.037744 -5.0794,-13.294443 -1.9856,-1.256701 -5.8958,-2.284909 -8.6895,-2.284909 -2.7936,0 -6.7936,1.082154 -8.8889,2.40479 -3.1729,2.002915 -3.9373,12.381912 -4.5744,62.107474 -0.5065,39.537314 0.1671,61.443934 1.9942,64.857904 1.9277,3.60194 5.3166,5.15522 11.2475,5.15522 4.6687,0 9.6862,-1.44306 11.15,-3.20681 1.4637,-1.76374 3.0323,-7.76374 3.4856,-13.33333 l 0.8241,-10.12652 15.873,-0.75611 15.873,-0.75611 v 14.2564 c 0,7.84102 -1.2824,16.7527 -2.85,19.80373 -1.5675,3.05103 -5.8532,8.79221 -9.5238,12.75818 -3.6706,3.96597 -9.7599,8.82312 -13.5318,10.79365 -3.7719,1.97054 -13.0207,3.58279 -20.5529,3.58279 z m 117.0359,-0.0157 c -7.389,-0.009 -16.8631,-1.79882 -21.0535,-3.97824 -4.1905,-2.17943 -10.3378,-6.4581 -13.6607,-9.50817 -3.3229,-3.05006 -7.6086,-9.22314 -9.5238,-13.71796 -2.646,-6.20977 -3.4822,-23.76818 -3.4822,-73.11695 0,-60.14447 0.3791,-65.687809 5.1295,-74.999369 2.8213,-5.530096 9.8854,-13.198853 15.698,-17.0416806 8.8461,-5.8482825 13.2873,-6.9841684 27.2514,-6.9698351 13.0268,0.013371 18.7751,1.3141269 26.2293,5.9353082 5.2504,3.2550015 12.4463,10.8666675 15.9907,16.9148125 l 6.4445,10.996629 -0.7527,68.350745 -0.7526,68.35074 -7.1313,9.34394 c -3.9221,5.13916 -11.5909,11.6191 -17.0416,14.39985 -6.2178,3.17205 -14.9163,5.05009 -23.345,5.04028 z m 0.5338,-33.00013 c 3.9909,0 9.0521,-1.79592 11.2471,-3.99093 3.3978,-3.39776 3.991,-12.71047 3.991,-62.65716 0,-51.025553 -0.5475,-59.271127 -4.2032,-63.310657 -2.3117,-2.554433 -7.3729,-4.644421 -11.2472,-4.644421 -3.8742,0 -8.8399,1.795918 -11.0349,3.99093 -3.4003,3.400297 -3.9909,12.769874 -3.9909,63.310658 0,50.54078 0.5906,59.91035 3.9909,63.31065 2.195,2.19501 7.2562,3.99093 11.2472,3.99093 z m 93.3026,32.50861 c -10.2592,0.53461 -15.0136,-0.227 -15.9042,-2.5477 -0.6987,-1.82065 -0.9705,-46.73524 -0.6042,-99.810191 l 0.6661,-96.4999178 12.6984,-0.66019922 c 6.9841,-0.3631096 13.9753,0.20831898 15.536,1.26984122 1.5607,1.0615221 10.7035,23.6443258 20.3175,50.1840068 l 17.4798,48.25397 1.2699,-49.523811 1.2698,-49.5238078 h 15.2381 15.2381 V 100.3175 199.36511 l -12.924,0.75345 c -8.3652,0.48768 -13.829,-0.40817 -15.4895,-2.53968 -1.4111,-1.81123 -9.1768,-21.57885 -17.2571,-43.92805 -8.0803,-22.34921 -15.9672,-43.49206 -17.5263,-46.98413 -2.2512,-5.04198 -3.0963,3.84713 -4.1047,43.1746 l -1.2698,49.52381 z m 129.5238,0 c -10.2592,0.53461 -15.0136,-0.227 -15.9042,-2.5477 -0.6986,-1.82065 -0.9705,-46.73524 -0.6042,-99.810191 l 0.6661,-96.4999178 h 15.0226 15.0227 l 16.5443,47.5865298 c 9.0993,26.172591 17.1666,46.964169 17.9272,46.203506 0.7607,-0.760663 8.3058,-21.603174 16.7669,-46.316689 l 15.3838,-44.9336643 15.8232,-0.7568848 15.8232,-0.7568847 -0.6649,98.5346558 -0.6649,98.53466 h -15.2381 -15.2381 l -0.8648,-49.52381 -0.8648,-49.5238 -10.7614,31.74603 -10.7613,31.74603 -9.0699,0.77294 -9.0698,0.77295 -11.0501,-32.51898 -11.0499,-32.51897 -1.2699,49.5238 -1.2698,49.52381 z m 185.3715,-0.066 c -32.7362,0.53535 -42.8839,-0.0544 -43.8407,-2.54769 -0.6847,-1.78436 -0.9452,-46.66925 -0.5789,-99.744201 l 0.6661,-96.4999078 h 43.1746 43.1746 V 16.507936 31.746031 l -27.3016,0.720843 -27.3016,0.72084 v 25.215601 25.215597 l 23.4921,0.730225 23.4921,0.730225 0.7587,14.506232 0.7588,14.506236 -23.6159,0.73186 -23.6159,0.73186 v 25.39683 25.39682 l 26.6667,1.26984 26.6666,1.26984 v 15.2381 15.23809 l -42.5957,0.69658 z m 89.3682,0.51118 c -11.9894,0.0342 -22.5608,-0.69982 -23.492,-1.63104 -0.9313,-0.9312 -1.6932,-45.50263 -1.6932,-99.047605 V 2.5396824 h 29.288 c 18.8532,0 32.2137,1.2224744 37.4999,3.4312238 4.5167,1.8871732 11.8522,7.5770238 16.3011,12.6441118 4.449,5.067088 8.8454,13.244607 9.7699,18.172262 0.9244,4.927657 1.2313,16.913782 0.6819,26.635836 -0.8529,15.094379 -2.022,18.744454 -8.0034,24.987735 -6.3192,6.595853 -6.6058,7.642258 -2.929,10.693808 2.2417,1.860391 5.7147,6.551871 7.7178,10.425511 2.4122,4.66458 3.6232,15.01881 3.5863,30.66116 -0.041,17.51858 -1.2767,26.30666 -4.7834,34.02817 -2.6002,5.72549 -8.1179,12.82406 -12.2616,15.7746 -4.1436,2.95054 -12.5625,6.52382 -18.7086,7.94063 -6.1461,1.41681 -20.9843,2.60395 -32.9737,2.6381 z m 19.7633,-33.81346 c 5.1166,-0.83031 11.0964,-3.30308 13.2884,-5.49506 2.9054,-2.90541 3.9854,-9.09784 3.9854,-22.85161 0,-13.60924 -1.0909,-19.95705 -3.9149,-22.78102 -2.1531,-2.15315 -8.4388,-4.19397 -13.9682,-4.53515 l -10.0535,-0.62033 -0.7323,25.21605 c -0.4028,13.86883 -0.097,26.87222 0.6799,28.89642 1.0359,2.69942 3.8919,3.27799 10.7152,2.17071 z m 0.5899,-86.450906 c 4.7922,-0.774372 10.2591,-2.953999 12.1487,-4.843614 1.8896,-1.889617 4.1082,-7.580192 4.9303,-12.645724 0.822,-5.065531 0.7819,-12.049322 -0.089,-15.519539 -0.871,-3.470215 -3.3778,-8.103685 -5.5707,-10.296599 -2.27,-2.269821 -8.2846,-3.987106 -13.9646,-3.987106 h -9.9773 v 22.43386 c 0,12.338626 0.8571,23.296246 1.9048,24.350273 1.0476,1.054024 5.8256,1.282831 10.6177,0.508459 z m 119.0073,120.227036 c -7.389,-0.0547 -16.8631,-1.62976 -21.0536,-3.50022 -4.1905,-1.87045 -10.6892,-6.68286 -14.4416,-10.69424 -3.7524,-4.01138 -8.0381,-10.51067 -9.5238,-14.44288 -1.6497,-4.36627 -2.7013,-32.23165 -2.7013,-71.58069 0,-39.474989 1.0492,-67.200453 2.7089,-71.580699 1.4899,-3.932204 5.2041,-9.871653 8.2539,-13.198778 3.0499,-3.327124 10.1166,-8.1591673 15.7039,-10.7378735 5.5873,-2.578706 15.0526,-4.71365592 21.034,-4.74433299 5.9813,-0.03067708 15.0823,1.70209569 20.2245,3.85060609 5.1421,2.1485106 11.5127,5.8627962 14.1569,8.2539684 2.6442,2.391171 7.0239,8.690031 9.7327,13.997466 4.5726,8.959332 4.8713,14.51696 4.1742,77.663633 l -0.7509,68.01375 -7.1312,9.34394 c -3.9222,5.13916 -11.591,11.6191 -17.0417,14.39985 -6.3224,3.22545 -14.7743,5.01993 -23.3449,4.95651 z m 0.5337,-32.91645 c 3.9909,0 9.0522,-1.79592 11.2472,-3.99093 3.3977,-3.39776 3.9909,-12.71047 3.9909,-62.65716 0,-51.025553 -0.5474,-59.271127 -4.2032,-63.310657 -2.3117,-2.554433 -7.3729,-4.644421 -11.2471,-4.644421 -3.8742,0 -8.84,1.795918 -11.035,3.99093 -3.4003,3.400297 -3.9909,12.769874 -3.9909,63.310658 0,50.54078 0.5906,59.91035 3.9909,63.31065 2.195,2.19501 7.2563,3.99093 11.2472,3.99093 z m 114.1333,32.44017 c -23.1314,0.38178 -42.8457,-0.0944 -43.8095,-1.0582 -0.9638,-0.96379 -1.7524,-44.76186 -1.7524,-97.32906 0,-70.951199 0.7852,-96.3619367 3.0476,-98.6243311 C 2135.5175,1.3714285 2142.1461,0 2148.5715,0 c 6.4254,0 13.054,1.3714285 14.7302,3.0476189 2.2426,2.2425876 3.0476,24.3809511 3.0476,83.8095201 v 80.761901 h 26.7878 26.7879 l -0.7561,15.87302 -0.7561,15.87301 z M 1173.198,116.26675 c -16.1379,0.39116 -30.1379,-0.085 -31.1111,-1.0582 -0.9732,-0.97317 -1.7519,-7.0075 -1.7305,-13.40961 0.02,-6.402118 0.9702,-13.108028 2.1085,-14.902027 1.5339,-2.417394 9.5779,-3.074867 31.0723,-2.539682 l 29.0025,0.722131 v 15.238098 15.23809 z m 1108.0243,0.007 c -22.7723,0.57175 -28.8998,-0.0129 -29.9932,-2.86237 -0.7557,-1.9695 -1.02,-9.14999 -0.5873,-15.956638 l 0.7869,-12.37574 h 29.2063 29.2064 v 15.238098 15.23809 l -28.6191,0.71854 z"
         style="fill:#002E83;stroke-width:2.53968" />
    </g>
  </g>
</svg>
